# xmcd
#
# Track frame offsets:
#	150
#	12502
#	19939
#	30088
#	37343
#	47505
#	54069
#	59585
#	65158
#	75334
#	80416
#	99048
#	102301
#	111031
#	113175
#	124524
#	133029
#
# Disc length: 1899 seconds
#
# Revision: 0
# Processed by: cddbd v1.5.2PL0 Copyright (c) Steve Scherf et al.
# Submitted via: audiograbber 1.83.01
#
DISCID=d2076911
DTITLE=Agathocles - Split With World Downfall
DYEAR=2006
DGENRE=Grindcore
TTITLE0=World Downfall - Intro - Machine
TTITLE1=World Downfall - Join the War?
TTITLE2=World Downfall - Bajo Control
TTITLE3=World Downfall - Misbehaviour
TTITLE4=World Downfall - Death Sentence of the Innocent
TTITLE5=Agathocles - What For?
TTITLE6=Agathocles - Dope, Dole, Dumb
TTITLE7=Agathocles - Your Standards
TTITLE8=Agathocles - Fist the Rapists
TTITLE9=Agathocles - Sack the GATT
TTITLE10=Agathocles - Cash and Traps
TTITLE11=Agathocles - Fucking Right (We're Left)
TTITLE12=Agathocles - Last In, First Out
TTITLE13=Agathocles - Lowlife Scumbags
TTITLE14=Agathocles - Violence and Pure Hate (I Am)
TTITLE15=Agathocles - Zero Tolerance
TTITLE16=Agathocles - A for Arrogance
EXTD=
EXTT0=
EXTT1=
EXTT2=
EXTT3=
EXTT4=
EXTT5=
EXTT6=
EXTT7=
EXTT8=
EXTT9=
EXTT10=
EXTT11=
EXTT12=
EXTT13=
EXTT14=
EXTT15=
EXTT16=
PLAYORDER=
